<svg height="512" viewBox="0 0 64 64" width="512" xmlns="http://www.w3.org/2000/svg"><g id="arrow-down_arrow-load" data-name="arrow-down arrow-load"><path d="m61 35-29 26-29-26h17l-15-32h27 27l-15 32z" fill="#78b9eb"/><path d="m61.934 34.643a1 1 0 0 0 -.934-.643h-15.427l14.332-30.576a1 1 0 0 0 -.905-1.424h-54a1 1 0 0 0 -.9 1.424l14.327 30.576h-15.427a1 1 0 0 0 -.667 1.745l29 26a1 1 0 0 0 1.334 0l29-26a1 1 0 0 0 .267-1.102zm-29.934 25.014-26.387-23.657h14.387a1 1 0 0 0 .905-1.424l-14.332-30.576h50.854l-14.327 30.576a1 1 0 0 0 .9 1.424h14.387z" fill="#006df0"/></g></svg>