<svg height="512" viewBox="0 0 512 512" width="512" xmlns="http://www.w3.org/2000/svg" xmlns:xlink="http://www.w3.org/1999/xlink"><linearGradient id="a" gradientUnits="userSpaceOnUse" x1="-5.161" x2="464.115" y1="487.029" y2="17.752" data-name="New Gradient Swatch 1"><stop offset="0" stop-color="#003f8a"/><stop offset=".518" stop-color="#00d7df"/><stop offset="1" stop-color="#006df0"/></linearGradient><linearGradient id="b" x1="-14.345" x2="454.932" xlink:href="#a" y1="477.845" y2="8.568"/><linearGradient id="c" x1="13.905" x2="483.182" xlink:href="#a" y1="506.095" y2="36.818"/><linearGradient id="d" x1="-42.095" x2="427.182" xlink:href="#a" y1="450.095" y2="-19.182"/><g><path d="m476 56h-440a28.031 28.031 0 0 0 -28 28v280a28.031 28.031 0 0 0 28 28h160.18l-9.6 24h-42.58a8 8 0 0 0 -8 8v16h-48a8 8 0 0 0 0 16h336a8 8 0 0 0 0-16h-48v-16a8 8 0 0 0 -8-8h-42.58l-9.6-24h160.18a28.031 28.031 0 0 0 28-28v-280a28.031 28.031 0 0 0 -28-28zm-116 376v8h-208v-8zm-156.18-16 9.6-24h85.16l9.6 24zm284.18-52a12.01 12.01 0 0 1 -12 12h-440a12.01 12.01 0 0 1 -12-12v-20h464zm0-36h-464v-244a12.01 12.01 0 0 1 12-12h440a12.01 12.01 0 0 1 12 12z" fill="url(#a)"/><path d="m219.61 262.688a8 8 0 0 0 11.078-2.3l63-96a8 8 0 1 0 -13.376-8.78l-63 96a8 8 0 0 0 2.298 11.08z" fill="url(#b)"/><path d="m306.879 262.146a8 8 0 0 0 11.267-1.025l40-48a8 8 0 0 0 0-10.242l-40-48a8 8 0 1 0 -12.292 10.242l35.732 42.879-35.732 42.879a8 8 0 0 0 1.025 11.267z" fill="url(#c)"/><path d="m193.854 261.121a8 8 0 1 0 12.292-10.242l-35.732-42.879 35.732-42.879a8 8 0 1 0 -12.292-10.242l-40 48a8 8 0 0 0 0 10.242z" fill="url(#d)"/></g></svg>